<svg width="97" height="23" viewBox="0 0 97 23" fill="none" xmlns="http://www.w3.org/2000/svg">
<path d="M5.94663 2.00525C9.32656 2.00525 11.928 2.88821 13.7508 4.65413C15.5927 6.42005 16.5137 8.87904 16.5137 12.0311C16.5137 15.1832 15.5927 17.6327 13.7508 19.3796C11.928 21.1265 9.32656 22 5.94663 22H0.335569V2.00525H5.94663ZM5.94663 20.9177C8.96578 20.9177 11.2634 20.1391 12.8394 18.5821C14.4154 17.0061 15.2035 14.8224 15.2035 12.0311C15.2035 9.22083 14.4154 7.02768 12.8394 5.45164C11.2634 3.87561 8.96578 3.08759 5.94663 3.08759H1.61728V20.9177H5.94663ZM27.1975 22.2279C25.7544 22.2279 24.4537 21.9051 23.2954 21.2595C22.1371 20.6138 21.2257 19.6929 20.5611 18.4966C19.9155 17.2814 19.5927 15.8668 19.5927 14.2527C19.5927 12.6577 19.925 11.2621 20.5896 10.0658C21.2541 8.85056 22.1656 7.92962 23.3239 7.30301C24.5012 6.6574 25.8114 6.3346 27.2545 6.3346C28.6976 6.3346 29.9983 6.6574 31.1566 7.30301C32.3149 7.92962 33.2168 8.84106 33.8624 10.0373C34.527 11.2336 34.8593 12.6387 34.8593 14.2527C34.8593 15.8668 34.527 17.2814 33.8624 18.4966C33.1978 19.6929 32.2769 20.6138 31.0996 21.2595C29.9413 21.9051 28.6406 22.2279 27.1975 22.2279ZM27.1975 21.0886C28.3178 21.0886 29.3622 20.8417 30.3306 20.348C31.318 19.8353 32.106 19.0663 32.6946 18.0409C33.2833 17.0156 33.5776 15.7528 33.5776 14.2527C33.5776 12.7717 33.2833 11.5184 32.6946 10.4931C32.106 9.46768 31.3275 8.70815 30.3591 8.21445C29.3907 7.70176 28.3463 7.44542 27.226 7.44542C26.1057 7.44542 25.0613 7.70176 24.0929 8.21445C23.1435 8.70815 22.3745 9.46768 21.7858 10.4931C21.1972 11.5184 20.9029 12.7717 20.9029 14.2527C20.9029 15.7528 21.1877 17.0156 21.7573 18.0409C22.346 19.0663 23.115 19.8353 24.0644 20.348C25.0328 20.8417 26.0772 21.0886 27.1975 21.0886ZM45.5554 22.2279C44.1123 22.2279 42.8116 21.9051 41.6533 21.2595C40.495 20.6138 39.5835 19.6929 38.919 18.4966C38.2734 17.2814 37.9505 15.8668 37.9505 14.2527C37.9505 12.6577 38.2828 11.2621 38.9474 10.0658C39.612 8.85056 40.5235 7.92962 41.6818 7.30301C42.859 6.6574 44.1692 6.3346 45.6124 6.3346C47.0555 6.3346 48.3562 6.6574 49.5145 7.30301C50.6728 7.92962 51.5747 8.84106 52.2203 10.0373C52.8849 11.2336 53.2172 12.6387 53.2172 14.2527C53.2172 15.8668 52.8849 17.2814 52.2203 18.4966C51.5557 19.6929 50.6348 20.6138 49.4575 21.2595C48.2992 21.9051 46.9985 22.2279 45.5554 22.2279ZM45.5554 21.0886C46.6757 21.0886 47.7201 20.8417 48.6885 20.348C49.6759 19.8353 50.4639 19.0663 51.0525 18.0409C51.6412 17.0156 51.9355 15.7528 51.9355 14.2527C51.9355 12.7717 51.6412 11.5184 51.0525 10.4931C50.4639 9.46768 49.6854 8.70815 48.717 8.21445C47.7485 7.70176 46.7042 7.44542 45.5839 7.44542C44.4636 7.44542 43.4192 7.70176 42.4508 8.21445C41.5014 8.70815 40.7323 9.46768 40.1437 10.4931C39.5551 11.5184 39.2607 12.7717 39.2607 14.2527C39.2607 15.7528 39.5456 17.0156 40.1152 18.0409C40.7039 19.0663 41.4729 19.8353 42.4223 20.348C43.3907 20.8417 44.4351 21.0886 45.5554 21.0886ZM58.3877 10.607C58.8624 9.35375 59.6694 8.32838 60.8087 7.53087C61.948 6.73336 63.3246 6.3346 64.9387 6.3346C66.3818 6.3346 67.6635 6.6574 68.7838 7.30301C69.9231 7.94861 70.8061 8.86955 71.4327 10.0658C72.0783 11.2621 72.4011 12.6577 72.4011 14.2527C72.4011 15.8478 72.0783 17.2529 71.4327 18.4682C70.8061 19.6644 69.9231 20.5949 68.7838 21.2595C67.6635 21.9051 66.3818 22.2279 64.9387 22.2279C63.3246 22.2279 61.9385 21.8291 60.7802 21.0316C59.6409 20.2341 58.8434 19.2087 58.3877 17.9555V22H57.106V0.922917H58.3877V10.607ZM71.0909 14.2527C71.0909 12.8476 70.825 11.6324 70.2934 10.607C69.7617 9.58161 69.0117 8.80309 68.0432 8.27141C67.0938 7.72075 65.9925 7.44542 64.7393 7.44542C63.543 7.44542 62.4607 7.73024 61.4923 8.2999C60.5239 8.85056 59.7643 9.64807 59.2137 10.6924C58.663 11.7178 58.3877 12.9046 58.3877 14.2527C58.3877 15.6199 58.663 16.8257 59.2137 17.87C59.7643 18.8954 60.5239 19.6929 61.4923 20.2626C62.4607 20.8132 63.543 21.0886 64.7393 21.0886C65.9925 21.0886 67.0938 20.8132 68.0432 20.2626C69.0117 19.7119 69.7617 18.9239 70.2934 17.8985C70.825 16.8731 71.0909 15.6579 71.0909 14.2527ZM77.5522 0.922917V22H76.2705V0.922917H77.5522ZM96.1787 13.2274C96.1787 13.911 96.1597 14.4236 96.1217 14.7654H82.7634C82.8014 16.1516 83.1052 17.3194 83.6748 18.2688C84.2445 19.2182 84.9945 19.9303 85.9249 20.405C86.8554 20.8797 87.8713 21.117 88.9726 21.117C90.4916 21.117 91.7639 20.7468 92.7892 20.0062C93.8146 19.2467 94.4602 18.2213 94.7261 16.9301H96.0647C95.7609 18.5061 94.9824 19.7879 93.7292 20.7753C92.4759 21.7437 90.8904 22.2279 88.9726 22.2279C87.5295 22.2279 86.2383 21.9051 85.099 21.2595C83.9597 20.6138 83.0672 19.6929 82.4216 18.4966C81.776 17.2814 81.4532 15.8668 81.4532 14.2527C81.4532 12.6387 81.7665 11.2336 82.3931 10.0373C83.0387 8.84106 83.9312 7.92962 85.0705 7.30301C86.2098 6.6574 87.5105 6.3346 88.9726 6.3346C90.4537 6.3346 91.7354 6.6574 92.8177 7.30301C93.919 7.92962 94.7545 8.77461 95.3242 9.83795C95.8938 10.8823 96.1787 12.0121 96.1787 13.2274ZM94.8969 13.7116C94.9539 12.3444 94.7071 11.1861 94.1564 10.2367C93.6247 9.28729 92.8937 8.58472 91.9632 8.129C91.0328 7.65429 90.0264 7.41694 88.9441 7.41694C87.8618 7.41694 86.8554 7.65429 85.9249 8.129C85.0135 8.58472 84.2635 9.28729 83.6748 10.2367C83.1052 11.1861 82.8014 12.3444 82.7634 13.7116H94.8969Z" fill="url(#paint0_linear_42_4)"/>
<defs>
<linearGradient id="paint0_linear_42_4" x1="5.04861" y1="12.1694" x2="92.375" y2="12.1694" gradientUnits="userSpaceOnUse">
<stop stop-color="#2230AF"/>
<stop offset="1" stop-color="#182279"/>
</linearGradient>
</defs>
</svg>
